<?xml version="1.0" encoding="UTF-8" standalone="no"?>
<svg
   version="1.1"
   width="512"
   height="512"
   x="0"
   y="0"
   viewBox="0 0 682.667 682.667"
   style="enable-background:new 0 0 512 512"
   xml:space="preserve"
   class=""
   id="svg9"
   sodipodi:docname="anubis-colorized.svg"
   inkscape:version="1.3 (0e150ed6c4, 2023-07-21)"
   xmlns:inkscape="http://www.inkscape.org/namespaces/inkscape"
   xmlns:sodipodi="http://sodipodi.sourceforge.net/DTD/sodipodi-0.dtd"
   xmlns="http://www.w3.org/2000/svg"
   xmlns:svg="http://www.w3.org/2000/svg"><defs
     id="defs9" /><sodipodi:namedview
     id="namedview9"
     pagecolor="#505050"
     bordercolor="#eeeeee"
     borderopacity="1"
     inkscape:showpageshadow="0"
     inkscape:pageopacity="0"
     inkscape:pagecheckerboard="0"
     inkscape:deskcolor="#505050"
     inkscape:zoom="1.0566406"
     inkscape:cx="256"
     inkscape:cy="256"
     inkscape:window-width="1366"
     inkscape:window-height="745"
     inkscape:window-x="0"
     inkscape:window-y="0"
     inkscape:window-maximized="1"
     inkscape:current-layer="svg9" /><g
     id="g9"><defs
       id="defs1"><clipPath
         id="a"
         clipPathUnits="userSpaceOnUse"><path
           d="M0 512h512V0H0Z"
           fill="#000000"
           opacity="1"
           data-original="#000000"
           class=""
           id="path1" /></clipPath></defs><path
       d="M0 0h30"
       style="stroke-width:30;stroke-linecap:round;stroke-linejoin:round;stroke-miterlimit:10;stroke-dasharray:none;stroke-opacity:1"
       transform="matrix(1.33333 0 0 -1.33333 321.333 221.333)"
       fill="none"
       stroke="#000000"
       stroke-width="30"
       stroke-linecap="round"
       stroke-linejoin="round"
       stroke-miterlimit="10"
       stroke-dasharray="none"
       stroke-opacity=""
       data-original="#000000"
       class=""
       id="path2" /><g
       clip-path="url(#a)"
       transform="matrix(1.33333 0 0 -1.33333 0 682.667)"
       id="g8"><path
         d="M0 0c0-49.706-40.294-90-90-90h270c0 49.705-40.293 89.998-90 90H0v90c0 33.137 26.863 61 60 61h90l30 90H90l-60 60H-90v91c-36.771-18.385-60-56.97-60-98.081V271c0-33.137 26.863-60 60-60V-90h-120v300.77c0 33.155 26.845 60.051 60 60.115"
         style="stroke-width:30;stroke-linecap:round;stroke-linejoin:round;stroke-miterlimit:10;stroke-dasharray:none;stroke-opacity:1"
         transform="translate(271 105)"
         fill="none"
         stroke="#000000"
         stroke-width="30"
         stroke-linecap="round"
         stroke-linejoin="round"
         stroke-miterlimit="10"
         stroke-dasharray="none"
         stroke-opacity=""
         data-original="#000000"
         class=""
         id="path3" /><path
         d="M0 0v-151c0-33.739-11.199-64.913-30.074-90"
         style="stroke-width:30;stroke-linecap:round;stroke-linejoin:round;stroke-miterlimit:10;stroke-dasharray:none;stroke-opacity:1"
         transform="translate(331 256)"
         fill="none"
         stroke="#000000"
         stroke-width="30"
         stroke-linecap="round"
         stroke-linejoin="round"
         stroke-miterlimit="10"
         stroke-dasharray="none"
         stroke-opacity=""
         data-original="#000000"
         class=""
         id="path4" /><path
         d="M0 0h120"
         style="stroke-width:30;stroke-linecap:round;stroke-linejoin:round;stroke-miterlimit:10;stroke-dasharray:none;stroke-opacity:1"
         transform="translate(61 165)"
         fill="none"
         stroke="#000000"
         stroke-width="30"
         stroke-linecap="round"
         stroke-linejoin="round"
         stroke-miterlimit="10"
         stroke-dasharray="none"
         stroke-opacity=""
         data-original="#000000"
         class=""
         id="path5" /><path
         d="M0 0h60"
         style="stroke-width:30;stroke-linecap:round;stroke-linejoin:round;stroke-miterlimit:10;stroke-dasharray:none;stroke-opacity:1"
         transform="translate(271 165)"
         fill="none"
         stroke="#000000"
         stroke-width="30"
         stroke-linecap="round"
         stroke-linejoin="round"
         stroke-miterlimit="10"
         stroke-dasharray="none"
         stroke-opacity=""
         data-original="#000000"
         class=""
         id="path6" /><path
         d="M0 0v91l6.334-3.167C39.225 71.388 60 36.772 60 0"
         style="stroke-width:30;stroke-linecap:round;stroke-linejoin:round;stroke-miterlimit:10;stroke-dasharray:none;stroke-opacity:1"
         transform="translate(241 406)"
         fill="none"
         stroke="#000000"
         stroke-width="30"
         stroke-linecap="round"
         stroke-linejoin="round"
         stroke-miterlimit="10"
         stroke-dasharray="none"
         stroke-opacity=""
         data-original="#000000"
         class=""
         id="path7" /><path
         d="M0 0h120"
         style="stroke-width:30;stroke-linecap:round;stroke-linejoin:round;stroke-miterlimit:10;stroke-dasharray:none;stroke-opacity:1"
         transform="translate(61 105)"
         fill="none"
         stroke="#000000"
         stroke-width="30"
         stroke-linecap="round"
         stroke-linejoin="round"
         stroke-miterlimit="10"
         stroke-dasharray="none"
         stroke-opacity=""
         data-original="#000000"
         class=""
         id="path8" /></g></g><path
     style="fill:#fefefe;fill-opacity:1;stroke-width:0.946396"
     d="m 196.845,337.62662 c -0.004,-95.97426 -0.32574,-142.87671 -0.99802,-145.29759 -2.11103,-7.60176 -8.49351,-12.00756 -17.45142,-12.04663 -14.18049,-0.0618 -30.72288,-11.07567 -37.2301,-24.78756 -4.4361,-9.34765 -5.18508,-15.30728 -4.64254,-36.94065 0.41354,-16.48972 0.81683,-20.460607 2.87276,-28.285926 3.95721,-15.062068 10.34141,-27.309975 20.63434,-39.586439 l 5.11601,-6.101909 0.47319,33.54738 c 0.4732,33.547174 0.47322,33.547404 2.74556,36.733444 1.2498,1.75234 4.01801,3.97885 6.15157,4.9478 3.64669,1.65612 7.36838,1.76297 62.08846,1.78251 l 58.20924,0.0208 L 323.2,150.0986 c 15.61227,15.66773 29.75638,29.08289 31.43134,29.81146 2.43356,1.05855 10.26144,1.32469 38.96359,1.32469 h 35.91819 l -9.94259,29.81146 -9.94257,29.81146 h -43.97652 c -49.85245,0 -51.56067,0.18186 -66.11724,7.03895 -20.8196,9.80738 -34.9685,26.87392 -41.82915,50.45473 -1.37038,4.71014 -1.66564,13.26556 -2.19654,63.64495 -0.68885,65.36734 -0.39405,62.5152 -8.07023,78.07764 -8.59886,17.43306 -24.12146,31.04446 -42.68832,37.4324 -2.94625,1.01366 -5.92896,1.84301 -6.62825,1.84301 -1.05863,0 -1.27232,-23.72042 -1.27671,-141.72273 z m 82.98491,-158.85679 c 8.72137,-6.50784 8.41642,-19.61248 -0.59774,-25.68713 -3.03606,-2.046 -3.97953,-2.13261 -23.23217,-2.13261 -19.23152,0 -20.20157,0.0888 -23.28334,2.13076 -4.56196,3.02277 -7.83627,9.96229 -7.00951,14.85586 0.84755,5.01661 4.0154,9.59612 8.07142,11.66821 2.90414,1.48364 5.66326,1.65147 23.33785,1.4196 18.67488,-0.245 20.22668,-0.39904 22.71349,-2.25469 z"
     id="path26"
     transform="scale(1.333334)" /><path
     style="fill:#fefefe;fill-opacity:1;stroke-width:0.946396"
     d="m 197.48009,389.67837 c -0.34578,-48.79852 -0.62895,-113.01586 -0.62926,-142.70519 l -5.5e-4,-53.98062 -2.12939,-4.20106 c -2.80959,-5.54302 -6.71897,-7.6394 -16.84156,-9.0312 -19.18467,-2.63776 -33.59193,-14.42354 -38.86876,-31.79635 -1.83334,-6.03589 -1.94926,-8.17558 -1.54429,-28.50547 0.37369,-18.76003 0.74086,-23.0888 2.50648,-29.550901 2.91646,-10.674129 11.22999,-27.049891 18.25747,-35.963032 l 5.9694,-7.571164 0.25984,8.51756 c 0.14292,4.684658 0.58123,19.681873 0.97403,33.327144 l 0.71419,24.809583 2.81155,2.98905 c 5.41254,5.75423 3.5127,5.59511 66.8058,5.59511 h 57.90346 l 28.20254,27.90437 c 15.5114,15.3474 29.60751,28.76096 31.32471,29.80792 2.98436,1.81953 4.72296,1.90371 39.38559,1.90709 34.10637,0.003 36.23192,0.10205 35.73412,1.65973 -0.2911,0.91091 -4.7211,14.2196 -9.84444,29.57486 l -9.31517,27.91867 -47.23967,0.48446 c -46.30896,0.47492 -47.3592,0.52741 -53.3077,2.66421 -22.36532,8.03403 -39.4459,23.87091 -47.62936,44.16131 -4.77574,11.84115 -4.63505,10.09187 -5.93824,73.82866 -1.35259,66.15345 -1.19515,64.50494 -7.32118,76.65804 -8.95645,17.76824 -23.64504,31.3832 -40.84087,37.8557 -3.4574,1.30136 -6.84505,2.36611 -7.52811,2.36611 -1.01166,0 -1.35849,-16.44986 -1.87063,-88.72459 z m 81.69778,-210.19951 c 3.91422,-2.09921 7.57999,-8.50053 7.57999,-13.23649 0,-4.70722 -3.36321,-11.09127 -7.04023,-13.3638 -2.88894,-1.78546 -4.6453,-1.92848 -23.68331,-1.92848 -22.82248,0 -23.74738,0.20785 -27.90134,6.27016 -3.2803,4.78728 -3.59664,11.14728 -0.81292,16.34364 3.84642,7.18011 5.68125,7.67086 28.67994,7.67086 17.57916,0 20.28623,-0.20508 23.17787,-1.75589 z"
     id="path27"
     transform="scale(1.333334)" /><path
     style="fill:#fefefe;fill-opacity:1;stroke-width:0.946396"
     d="m 286.76909,321.0647 c 0.0177,-16.82772 3.53437,-26.19776 13.61568,-36.27908 4.81666,-4.81665 12.10593,-9.85771 14.25405,-9.85771 0.281,0 0.5109,12.77634 0.5109,28.39187 v 28.39187 h -14.19593 -14.19593 z"
     id="path28"
     transform="scale(1.333334)" /><path
     style="fill:#fefefe;fill-opacity:1;stroke-width:0.946396"
     d="M 286.75786,376.66543 V 361.9963 h 14.19593 14.19593 v 14.66913 14.66914 h -14.19593 -14.19593 z"
     id="path29"
     transform="scale(1.333334)" /><path
     style="fill:#fefefe;fill-opacity:1;stroke-width:0.946396"
     d="m 263.1995,472.96118 c 4.11844,-5.11897 8.62054,-12.25603 11.79061,-18.69131 4.93825,-10.02473 9.87495,-24.7445 9.87495,-29.44413 v -2.26012 h 14.66914 14.66913 l -10e-4,2.60259 c -0.002,3.25292 -4.00841,19.78988 -6.47802,26.73567 -2.74676,7.72532 -6.46903,15.71585 -10.67867,22.92376 l -3.74628,6.4145 H 274.91812 256.5371 Z"
     id="path30"
     transform="scale(1.333334)" /><path
     style="fill:#fefefe;fill-opacity:1;stroke-width:0.946396"
     d="m 329.66469,480.05915 c 8.10772,-18.39058 13.90669,-37.76799 15.32747,-51.21715 l 0.68667,-6.49996 14.31031,0.47853 c 16.61384,0.55555 24.3128,2.37505 35.70801,8.43889 16.61187,8.83983 29.78189,24.27423 35.90901,42.083 1.01365,2.94625 1.84301,5.92896 1.84301,6.62825 0,1.04893 -9.12675,1.27143 -52.15301,1.27143 -41.36963,0 -52.04518,-0.2446 -51.63147,-1.18299 z"
     id="path31"
     transform="scale(1.333334)" /><path
     style="fill:#fefefe;fill-opacity:1;stroke-width:0.946396"
     d="m 76.681176,260.96858 c 0.01387,-42.42156 0.391961,-72.34129 0.944407,-74.73518 2.502435,-10.84371 11.173798,-22.57755 20.937904,-28.33257 8.455753,-4.98388 8.716473,-4.95161 10.683893,1.32211 7.3948,23.58063 28.38145,43.58032 51.96149,49.51784 l 4.41035,1.11054 v 60.93016 60.93017 H 121.13863 76.658041 Z"
     id="path32"
     transform="scale(1.333334)" /><path
     style="fill:#fefefe;fill-opacity:1;stroke-width:0.946396"
     d="M 76.658041,376.66543 V 361.9963 h 44.480589 44.48059 v 14.66913 14.66914 H 121.13863 76.658041 Z"
     id="path33"
     transform="scale(1.333334)" /><path
     style="fill:#fefefe;fill-opacity:1;stroke-width:0.946396"
     d="m 76.658041,451.90388 v -29.33826 h 44.480589 44.48059 v 29.33826 29.33826 H 121.13863 76.658041 Z"
     id="path34"
     transform="scale(1.333334)" /><path
     style="fill:#fefefe;fill-opacity:1;stroke-width:0.946396"
     d="M 256.4732,66.52384 V 42.666904 l 4.34545,4.219228 c 8.80179,8.546106 17.14949,22.518358 21.09792,35.313372 1.10115,3.568322 2.0021,6.868876 2.0021,7.334565 0,0.465689 -6.17523,0.846707 -13.72274,0.846707 H 256.4732 Z"
     id="path35"
     transform="scale(1.333334)" /></svg>
